<?xml version="1.0" encoding="UTF-8"?>
<svg id="Layer_2" data-name="Layer 2" xmlns="http://www.w3.org/2000/svg" viewBox="0 0 360.32 601.89">
  <defs>
    <style>
      .cls-1 {
        fill: none;
        stroke: #fff200;
        stroke-linecap: round;
        stroke-miterlimit: 10;
        stroke-width: 7px;
      }
    </style>
  </defs>
  <g id="Layer_1-2" data-name="Layer 1">
    <g>
      <path class="cls-1" d="M248.57,582.5c2.68.35,8.07-.76,10.72-1.28,1.43-.28,4.56-.53,5.62-1.53.73-.69,1.26-2.82,1.28-3.83,0,0-11.74-32.26,2.04-62.13s37.11-129.38,37.11-129.38c.73-1.03,2.53-2.83,3.4-3.74,1-1.05,2.83-3.37,4.09-4.09,1.53-.86,5.26-.88,6.81-1.7,2.13-1.13,5.56-4.66,7.15-6.47,14.79-16.83,22.74-82.74,28.87-114.91s-13.89-89.51-13.89-89.51c-1.44-2.1-4.36-6.35-6.3-8-3.83-3.27-13.17-7.39-17.57-9.83-1.73-.96-5.28-2.72-6.94-3.79-3.54-2.29-10.27-7.4-13.45-10.17-1.84-1.6-5.29-5.06-6.89-6.89-3.85-4.41-12.3-13.09-14.17-18.64-.57-1.69.13-5.37,0-7.15-.1-1.38-.77-5.11-.77-5.49s-1.95-5.24-2.81-6.89c-.76-1.46-2.68-4.16-3.45-5.62-1.53-2.91-4.04-8.99-5.36-12s-3.7-8.87-5.11-11.74c-1.2-2.45-3.72-7.31-5.23-9.57s-5.32-6.14-6.77-8.43c-34.55-54.45-104.85-31.34-104.85-31.34-29.62,11.49-35.45,26.23-35.45,26.23-.55,1.97.18,6.14,0,8.17-.14,1.61-.65,4.84-1.15,6.38s-1.95,4.75-2.94,6.13c-1.07,1.49-3.97,3.79-5.23,5.11-1.82,1.89-5.67,5.55-7.04,7.79-.97,1.57-2.16,5.12-2.66,6.89-.66,2.34-1.56,7.15-1.79,9.57-.26,2.83-.43,8.55,0,11.36.4,2.61,1.94,7.75,3.19,10.09,1.07,2,3.61,7.97,5.7,7.09,3.28-1.38-2.78-10.74-1.7-14.13.35-1.09,1.95-4.71,3.06-4.98"/>
      <path class="cls-1" d="M114.15,95.99c2.55,2.25.56,10.26,0,13.62-.43,2.57-2.45,7.44-3.4,9.87-1.39,3.55-4.35,10.59-6.13,13.96-1.35,2.57-4.14,7.76-6.13,9.87-1.21,1.29-4.27,3.17-5.79,4.09-1.2.72-3.74,1.9-4.99,2.54-4.11,2.09-12.65,5.75-16.46,8.36-4.82,3.31-13.87,10.97-17.36,15.66-2.52,3.39-8.06,12.26-8.74,13.96s-4.51,10.41-6.23,13.62c-2.22,4.13-5.61,12.93-7.15,17.36-1.33,3.84-3.42,11.72-4.43,15.66-1.33,5.24-4.77,21.11-4.77,21.11l-3.74,18.72-8.17,35.29-1.46,6.67c-2.42,11.03-3.64,22.3-3.64,33.59h0c0,6.37-.39,12.73-1.16,19.05l-.88,7.19,1.02,27.23-.34,17.7,2.04,23.15.34,9.53h0c.41,2.23,2.21,3.94,4.46,4.22l4.39.55,2.72,2.04,3.74,4.77.68,4.43s-1.49,30.17-10.68,62.34,18.47,34.31,18.47,34.31l33.11,6.54c2.1-.35,5.03,9.36,7.15,9.19,4.73-.38,28.71,18.73,31.62,15.96,3.74-3.56,4.24-15.76,8.34-18.89,2.26-1.73,8.42-1.32,11.23-1.7,2.12-.29,6.4-.63,8.51-1.02,3.71-.69,11.17-2.24,14.64-3.74,2.32-1.01,6.56-3.84,8.51-5.45,2.19-1.8,5.64-6.38,7.83-8.17.98-.8,3.2-2.05,4.28-2.72,1.18-.74,3.61-2.13,4.74-2.94,1.07-.76,3.25-2.31,4.09-3.32,1.11-1.34,2.47-4.6,3.32-6.13.66-1.19,1.98-3.56,2.68-4.72,1.14-1.91,3.45-5.71,4.72-7.53,1.4-2.01,4.54-5.78,6-7.74s4.11-6.02,5.62-7.91,4.56-5.2,6.13-6.89c1.44-1.56,3.93-5.26,5.87-6.13s6.36-1.2,8.17-.26c2.09,1.09,3.81,5.95,5.11,7.91,1.57,2.38,5.21,6.85,6.38,9.45,1.36,3.01,2.33,9.62,3.32,12.77,1.04,3.31,3.21,9.96,4.85,13.02.67,1.25,2.6,3.37,3.32,4.6.61,1.03,1.69,3.19,2.04,4.34.74,2.41,1.24,7.46,1.53,9.96.47,4.01-1.12,12.84,1.28,16.09"/>
      <path class="cls-1" d="M148.61,85.16c0-1.42-4.23-.53-5.62-.85-1.95-.45-5.68-2.08-7.66-2.38-2.27-.35-6.9-.18-9.19,0s-6.52.98-8.68,1.36c-2.86.5-8.76,1.01-11.4,2.21-1.96.89-5.35,3.69-6.81,5.28-.98,1.07-3.15,1.85-3.15,3.3,0,0,13.23,4.68,18.04,1.91,3.09-1.78,8.98-5.96,12.33-7.2,3.05-1.13,12.8.92,12.8-2.33"/>
      <path class="cls-1" d="M114.91,62.52c0-1.24,1.47-3.64,2.55-4.26,1.22-.69,4.37-.64,5.62,0,.84.43,2.16,2.12,2.21,3.06.05.87-1,2.54-1.7,3.06-1.19.9-4.31,1.19-5.79,1.36-.51.06-2.04-.51-2.04,0"/>
      <path class="cls-1" d="M105.51,49.16c0-2.7,6.79-4.65,9.4-5.34,1.25-.33,4.01-.53,5.19,0,2.84,1.27,8.19,9.11,8.7,8.89s4.34,8.34,4.6,9.3,2.97,8.59,4.85,10.91,9.19,4.02,9.19,6.89"/>
      <path class="cls-1" d="M312.83,376.52s24.45-136.87,11.43-171.34-16.85-38.3-16.85-38.3"/>
      <path class="cls-1" d="M18.15,460.58s18.11-33.28,30.36-56.26,49.23-49.79,47.6-107.23,1.7-75.06-8.4-98.81"/>
      <path class="cls-1" d="M87.71,591.41s-4.73-10.91-7.03-36.19-3.69-34.47,3.52-45.19"/>
      <path class="cls-1" d="M110.57,579.22v-38.55c0-18.38,3.57-48.26,3.57-48.26"/>
      <path class="cls-1" d="M143.3,57.99s3.06-11.39,16.62-15.96c15.14-5.1,41.6-13.09,46.19,1.46s-23.83,22.27-23.83,22.27c0,0-16.68,3.64-32.85-9.3"/>
      <path class="cls-1" d="M161.22,46.59c2.08-4.21,6.41-7.1,11.42-7.1,7.03,0,12.72,5.7,12.72,12.72s-5.7,12.72-12.72,12.72-12.72-5.7-12.72-12.72"/>
      <path class="cls-1" d="M155.16,159.06s17.34,33.93,18.13,48.36c.79,14.43,4.66-39.96,14.59-42.26"/>
      <path class="cls-1" d="M138.8,256.56s14.15,36.36,14.94,50.79,7.84-42.39,17.78-44.69"/>
      <path class="cls-1" d="M110.12,351.12s17.34,33.93,18.13,48.36c.79,14.43,4.66-39.96,14.59-42.26"/>
      <path class="cls-1" d="M173.89,392.83s17.34,33.93,18.13,48.36c.79,14.43,4.66-39.96,14.59-42.26"/>
      <path class="cls-1" d="M79.74,421.77s17.34,33.93,18.13,48.36c.79,14.43,4.66-39.96,14.59-42.26"/>
      <path class="cls-1" d="M241.48,401.91s17.34,33.93,18.13,48.36c.79,14.43,4.66-39.96,14.59-42.26"/>
      <path class="cls-1" d="M185.42,279.86s17.34,33.93,18.13,48.36,4.66-39.96,14.59-42.26"/>
      <path class="cls-1" d="M241.48,309s17.34,33.93,18.13,48.36,4.66-39.96,14.59-42.26"/>
      <path class="cls-1" d="M257.84,231.16s17.34,33.93,18.13,48.36c.79,14.43,4.66-39.96,14.59-42.26"/>
      <path class="cls-1" d="M190.25,166.88s17.34,33.93,18.13,48.36c.79,14.43,4.66-39.96,14.59-42.26"/>
      <path class="cls-1" d="M225.85,173.23s25.1,19.68,30.76,30.36c5.67,10.68-10.51-31.98-3.77-37.22"/>
      <path class="cls-1" d="M254.03,164.89s27.56,16.05,34.64,25.85c7.08,9.8-14.79-30.24-8.84-36.35"/>
      <path class="cls-1" d="M282.54,150.61s22.37,13.03,28.12,20.99c5.75,7.96-12.01-24.55-7.17-29.51"/>
      <path class="cls-1" d="M118.66,151.31s17.34,33.93,18.13,48.36,4.66-39.96,14.59-42.26"/>
      <path class="cls-1" d="M98.45,146.23s6.86,20.8,6.04,29.07c-.82,8.26,6.16-22.29,12.01-22.72"/>
    </g>
  </g>
</svg>